<svg width="274" height="64" viewBox="0 0 274 64" fill="none" xmlns="http://www.w3.org/2000/svg">
<path fill-rule="evenodd" clip-rule="evenodd" d="M8.61745 10.4335C11.4776 11.8843 12.5028 15.3708 10.8501 18.0292C7.80762 22.9253 0.00587149 20.7828 3.13889e-06 15.0497C-0.00451098 11.1336 4.8608 8.52753 8.61745 10.4335ZM32.7255 40.3911L39.0038 32.7786C42.4566 28.5915 45.514 25.0784 45.7975 24.9717C46.0814 24.8649 49.0323 24.833 52.3556 24.9017L58.3982 25.0257L51.2045 33.2183C47.2479 37.7243 43.754 41.7338 43.4398 42.1284C42.9486 42.7457 43.9733 44.2173 50.7752 52.6574C55.1237 58.0539 58.6817 62.5635 58.6817 62.679C58.6817 62.7946 55.8766 62.8889 52.4477 62.8889H46.2142L36.0556 50.4366L32.5368 54.2535L32.4998 62.8889H21.666V10.6332H32.4876L32.7255 40.3911ZM88.0586 25.0735C89.1565 25.4951 90.8168 26.4207 91.7476 27.1305L93.4404 28.4214V24.8043H103.823V62.8889H93.4404V59.301L91.9485 60.4174C86.843 64.2374 79.1081 64.678 72.387 61.5307C61.3437 56.3605 58.7214 38.9084 67.6142 29.7685C71.6968 25.5726 76.3653 23.7888 82.416 24.1125C84.4212 24.2197 86.9604 24.6524 88.0586 25.0735ZM135.196 24.8773C137.216 25.2949 143.579 28.243 144.637 29.2513C145.03 29.6251 140.199 36.3275 139.549 36.3107C139.39 36.3067 137.532 35.6123 135.422 34.7683C131.036 33.0137 127.977 32.7755 125.491 33.9942C124.353 34.5517 123.871 35.1071 123.768 35.9795C123.578 37.6051 125.005 38.2105 132.408 39.644C138.845 40.8906 141.813 42.1372 143.901 44.4701C147.624 48.6293 146.852 56.3109 142.318 60.2261C139.384 62.7596 136.439 63.5546 130.005 63.5484C124.188 63.5435 119.953 62.5471 115.725 60.1898C111.937 58.077 111.937 58.0743 114.943 54.0998L117.585 50.6088L120.075 51.89C126.425 55.1551 133.747 55.33 135.424 52.2562C135.999 51.2022 135.378 49.7878 134.181 49.4225C133.746 49.2896 130.75 48.6723 127.522 48.0501C124.294 47.4279 120.592 46.4146 119.295 45.7986C113.866 43.2191 111.705 38.0528 113.531 32.0195C115.389 25.8799 124.894 22.7464 135.196 24.8773ZM179.378 24.8791C184.79 26.2152 190.568 30.73 192.884 35.4325C196.579 42.9352 195.02 51.7098 188.931 57.6828C180.516 65.9388 166.533 65.7666 158.468 57.3082C155.348 54.0369 153.617 50.6797 153.078 46.8561C151.86 38.2211 156.354 30.0963 164.427 26.3347C169.282 24.0731 174.181 23.5962 179.378 24.8791ZM11.2835 62.8889H0.44961V24.8043H11.2835V62.8889ZM79.8953 33.6319C76.2913 34.7076 74.0532 37.0932 73.0944 40.8822C71.1384 48.6094 76.7788 55.1431 84.7123 54.3398C90.4344 53.7606 93.6661 49.9773 93.6661 43.8585C93.6661 41.0425 93.4715 40.1816 92.4134 38.311C91.0718 35.9383 89.0901 34.3422 86.6263 33.6492C84.8564 33.151 81.5349 33.1426 79.8953 33.6319ZM171.245 33.6164C168.09 34.4087 165.335 36.7761 164.045 39.8043C163.264 41.6381 163.214 46.4638 163.958 48.1435C166.166 53.1264 171.199 55.6422 176.341 54.3341C181.146 53.1114 184.174 49.1293 184.174 44.0352C184.174 39.7069 182.55 36.7956 178.996 34.7523C176.88 33.5358 173.525 33.0443 171.245 33.6164Z" fill="white"/>
<path d="M243.899 6.60415L251.947 13.2397L252.398 4.61891L256.845 4.49179C259.737 4.40898 261.514 4.54405 261.924 4.87795C262.419 5.28139 262.555 7.02044 262.555 12.9683V20.5445L266.681 24.6098C271.826 29.6781 271.806 30.0825 266.406 30.0825H262.555V51.7539L273.163 52.0032V63.5171L234.229 63.6305C195.521 63.7429 195.294 63.7381 195.294 62.8555C195.294 61.9734 195.56 61.9671 233.439 61.9671H271.583V53.5531H266.214C261.735 53.5531 260.8 53.4371 260.572 52.8526C260.214 51.9385 260.214 29.9257 260.572 29.0116C260.788 28.4581 261.563 28.3111 264.263 28.3111H267.681L260.298 20.8908V6.61169H254.009L253.88 11.3364C253.796 14.431 253.571 16.1196 253.228 16.2316C252.939 16.325 251.314 15.2401 249.616 13.8194C247.919 12.3992 244.045 9.18239 241.008 6.67102L235.488 2.10488L203.795 28.0897L206.868 28.2229C208.623 28.2991 210.088 28.5839 210.284 28.8872C210.474 29.179 210.632 34.6495 210.636 41.0429L210.642 52.6675H208.385V30.117L204.436 29.989C201.131 29.8819 200.486 29.7424 200.486 29.1357C200.486 28.3886 234.361 0.0567247 235.322 4.05973e-05C235.614 -0.0167875 239.473 2.95511 243.899 6.60415Z" fill="#FDB927"/>
<path fill-rule="evenodd" clip-rule="evenodd" d="M245.311 24.8569C246.077 25.6084 246.077 43.4134 245.311 44.1649C244.924 44.5449 242.041 44.6963 235.202 44.6963C226.895 44.6963 225.6 44.6042 225.362 43.9957C224.817 42.603 225.057 25.4184 225.629 24.8569C226.395 24.1054 244.545 24.1054 245.311 24.8569ZM227.345 33.6252V26.5397H234.567V33.6252H227.345ZM236.373 33.6252V26.5397H243.596V33.6252H236.373ZM227.345 42.925V35.3966H234.567V42.925H227.345ZM236.373 42.925V35.3966H243.596V42.925H236.373Z" fill="#FDB927"/>
</svg>
