<svg width="441" height="281" viewBox="0 0 441 281" fill="none" xmlns="http://www.w3.org/2000/svg">
<path fill-rule="evenodd" clip-rule="evenodd" d="M19.4593 127.56C25.9179 130.836 28.2328 138.709 24.501 144.712C17.6306 155.768 0.0132586 150.93 7.08801e-06 137.984C-0.0101864 129.141 10.9763 123.256 19.4593 127.56ZM73.6303 161.61L73.8984 195.208L88.0755 178.018C95.8725 168.563 102.776 160.63 103.417 160.389C104.058 160.148 110.721 160.076 118.226 160.231L131.871 160.511L115.626 179.011C106.692 189.186 98.802 198.24 98.0926 199.131C96.9835 200.525 99.2974 203.848 114.657 222.907C124.476 235.093 132.511 245.276 132.511 245.537C132.511 245.798 126.177 246.011 118.434 246.011H104.358L92.8878 231.952L81.4182 217.892L77.4458 222.202L73.4724 226.511L73.4306 236.261L73.3888 246.011H61.1567H48.9245V187.011V128.011H61.1434H73.3613L73.6303 161.61ZM198.848 160.619C201.327 161.571 205.076 163.661 207.178 165.264L211 168.179V164.095V160.011H222.723H234.445V203.011V246.011H222.723H211V241.96V237.909L207.631 240.43C196.103 249.056 178.636 250.051 163.459 242.944C138.522 231.269 132.601 191.86 152.682 171.221C161.901 161.746 172.443 157.718 186.106 158.449C190.634 158.691 196.368 159.668 198.848 160.619ZM305.29 160.176C309.85 161.119 324.22 167.776 326.609 170.053C327.495 170.897 316.587 186.032 315.12 185.994C314.76 185.985 310.565 184.417 305.8 182.511C295.897 178.549 288.989 178.011 283.374 180.763C280.804 182.022 279.716 183.276 279.485 185.246C279.054 188.917 282.277 190.284 298.994 193.521C313.529 196.336 320.232 199.151 324.948 204.419C333.353 213.811 331.61 231.157 321.372 239.998C314.747 245.719 308.097 247.514 293.567 247.5C280.432 247.489 270.87 245.239 261.322 239.916C252.767 235.145 252.767 235.139 259.557 226.164L265.521 218.281L271.146 221.174C285.485 228.547 302.019 228.942 305.806 222.001C307.103 219.621 305.702 216.427 302.997 215.602C302.016 215.302 295.249 213.908 287.961 212.503C280.673 211.098 272.313 208.81 269.384 207.419C257.124 201.594 252.243 189.928 256.367 176.304C260.564 162.44 282.027 155.364 305.29 160.176ZM405.058 160.18C417.28 163.197 430.328 173.392 435.557 184.011C443.9 200.953 440.381 220.767 426.631 234.255C407.628 252.898 376.054 252.509 357.84 233.409C350.796 226.022 346.887 218.441 345.669 209.807C342.919 190.308 353.067 171.961 371.298 163.467C382.26 158.36 393.323 157.283 405.058 160.18ZM25.4796 203.011V246.011H13.2474H1.01528V203.011V160.011H13.2474H25.4796V203.011ZM180.414 179.945C172.275 182.374 167.222 187.761 165.056 196.317C160.64 213.766 173.376 228.52 191.291 226.706C204.213 225.398 211.51 216.855 211.51 203.038C211.51 196.679 211.071 194.735 208.681 190.511C205.652 185.153 201.177 181.549 195.613 179.984C191.617 178.859 184.116 178.84 180.414 179.945ZM386.693 179.91C379.569 181.699 373.348 187.045 370.435 193.883C368.672 198.024 368.558 208.921 370.238 212.714C375.225 223.966 386.59 229.647 398.2 226.693C409.05 223.932 415.889 214.94 415.889 203.437C415.889 193.663 412.222 187.089 404.196 182.475C399.417 179.728 391.841 178.618 386.693 179.91Z" fill="white"/>
<path d="M241.756 14.9131L259.928 29.8971L260.438 20.1631L260.947 10.4302L270.99 10.1431C277.52 9.9561 281.532 10.2611 282.457 11.0151C283.577 11.9261 283.882 15.8531 283.882 29.2841V46.3921L293.2 55.5721C304.819 67.0171 304.773 67.9301 292.578 67.9301H283.882V92.3981V116.867L295.86 117.148L307.837 117.43V130.43V143.43L219.919 143.686C132.512 143.94 132 143.929 132 141.936C132 139.944 132.6 139.93 218.135 139.93H304.269V130.43V120.93H292.146C282.032 120.93 279.92 120.668 279.404 119.348C278.597 117.284 278.597 67.5761 279.404 65.5121C279.894 64.2621 281.644 63.9301 287.74 63.9301H295.457L287.121 55.5521L278.786 47.1741V31.0521V14.9301H271.685H264.584L264.295 25.5991C264.105 32.5871 263.596 36.4001 262.821 36.6531C262.169 36.8641 258.5 34.4141 254.666 31.2061C250.832 27.9991 242.085 20.7351 235.228 15.0641L222.761 4.75315L186.978 34.0921L151.195 63.4301L158.134 63.7311C162.097 63.9031 165.406 64.5461 165.849 65.2311C166.276 65.8901 166.633 78.2431 166.642 92.6801L166.658 118.93H164.109H161.561V93.4691V68.0081L152.642 67.7191C145.179 67.4771 143.722 67.1621 143.722 65.7921C143.722 64.1051 220.218 0.128161 222.388 0.000160586C223.046 -0.0378394 231.761 6.67309 241.756 14.9131Z" fill="#AFA15F"/>
<path fill-rule="evenodd" clip-rule="evenodd" d="M244.943 56.1301C246.673 57.8271 246.673 98.0331 244.943 99.7301C244.069 100.588 237.56 100.93 222.117 100.93C203.358 100.93 200.433 100.722 199.895 99.3481C198.665 96.2031 199.207 57.3981 200.5 56.1301C202.23 54.4331 243.214 54.4331 244.943 56.1301ZM204.374 75.9301V67.9301V59.9301H212.528H220.683V67.9301V75.9301H212.528H204.374ZM224.76 75.9301V67.9301V59.9301H232.915H241.07V67.9301V75.9301H232.915H224.76ZM204.374 96.9301V88.4301V79.9301H212.528H220.683V88.4301V96.9301H212.528H204.374ZM224.76 96.9301V88.4301V79.9301H232.915H241.07V88.4301V96.9301H232.915H224.76Z" fill="#AFA15F"/>
<path d="M55.9659 263.017V261.455H66.875V263.017H62.3011V276H60.5398V263.017H55.9659ZM68.2333 276V265.091H69.8526V266.739H69.9663C70.1651 266.199 70.525 265.761 71.0458 265.425C71.5666 265.089 72.1538 264.92 72.8072 264.92C72.9303 264.92 73.0842 264.923 73.2688 264.928C73.4535 264.932 73.5932 264.939 73.6879 264.949V266.653C73.631 266.639 73.5008 266.618 73.2972 266.589C73.0984 266.556 72.8877 266.54 72.6651 266.54C72.1348 266.54 71.6613 266.651 71.2447 266.874C70.8327 267.091 70.506 267.394 70.2646 267.783C70.0278 268.166 69.9094 268.604 69.9094 269.097V276H68.2333ZM79.7745 276.227C78.7897 276.227 77.9255 275.993 77.1822 275.524C76.4435 275.055 75.8659 274.4 75.4492 273.557C75.0373 272.714 74.8313 271.729 74.8313 270.602C74.8313 269.466 75.0373 268.474 75.4492 267.626C75.8659 266.779 76.4435 266.121 77.1822 265.652C77.9255 265.183 78.7897 264.949 79.7745 264.949C80.7594 264.949 81.6211 265.183 82.3597 265.652C83.1031 266.121 83.6808 266.779 84.0927 267.626C84.5094 268.474 84.7177 269.466 84.7177 270.602C84.7177 271.729 84.5094 272.714 84.0927 273.557C83.6808 274.4 83.1031 275.055 82.3597 275.524C81.6211 275.993 80.7594 276.227 79.7745 276.227ZM79.7745 274.722C80.5226 274.722 81.1381 274.53 81.6211 274.146C82.104 273.763 82.4615 273.259 82.6935 272.634C82.9255 272.009 83.0415 271.331 83.0415 270.602C83.0415 269.873 82.9255 269.194 82.6935 268.564C82.4615 267.934 82.104 267.425 81.6211 267.037C81.1381 266.649 80.5226 266.455 79.7745 266.455C79.0264 266.455 78.4109 266.649 77.9279 267.037C77.445 267.425 77.0875 267.934 76.8555 268.564C76.6235 269.194 76.5075 269.873 76.5075 270.602C76.5075 271.331 76.6235 272.009 76.8555 272.634C77.0875 273.259 77.445 273.763 77.9279 274.146C78.4109 274.53 79.0264 274.722 79.7745 274.722ZM94.1513 271.54V265.091H95.8274V276H94.1513V274.153H94.0376C93.782 274.707 93.3842 275.179 92.8445 275.567C92.3047 275.95 91.6229 276.142 90.799 276.142C90.1172 276.142 89.5111 275.993 88.9808 275.695C88.4505 275.392 88.0339 274.937 87.7308 274.331C87.4278 273.72 87.2763 272.951 87.2763 272.023V265.091H88.9524V271.909C88.9524 272.705 89.175 273.339 89.62 273.812C90.0698 274.286 90.6428 274.523 91.3388 274.523C91.7554 274.523 92.1792 274.416 92.6101 274.203C93.0457 273.99 93.4103 273.663 93.7038 273.223C94.0021 272.783 94.1513 272.222 94.1513 271.54ZM107.818 265.091L103.784 276H102.079L98.0451 265.091H99.8633L102.875 273.784H102.988L106 265.091H107.818ZM114.213 276.227C113.162 276.227 112.256 275.995 111.493 275.531C110.736 275.062 110.151 274.409 109.739 273.571C109.332 272.728 109.128 271.748 109.128 270.631C109.128 269.513 109.332 268.528 109.739 267.676C110.151 266.819 110.724 266.152 111.458 265.673C112.196 265.19 113.058 264.949 114.043 264.949C114.611 264.949 115.172 265.044 115.726 265.233C116.28 265.422 116.784 265.73 117.239 266.156C117.694 266.578 118.056 267.136 118.326 267.832C118.596 268.528 118.73 269.385 118.73 270.403V271.114H110.321V269.665H117.026C117.026 269.049 116.903 268.5 116.657 268.017C116.415 267.534 116.069 267.153 115.62 266.874C115.175 266.594 114.649 266.455 114.043 266.455C113.375 266.455 112.798 266.62 112.31 266.952C111.827 267.278 111.455 267.705 111.195 268.23C110.935 268.756 110.804 269.319 110.804 269.92V270.886C110.804 271.71 110.946 272.409 111.23 272.982C111.519 273.55 111.919 273.983 112.431 274.281C112.942 274.575 113.536 274.722 114.213 274.722C114.654 274.722 115.051 274.66 115.407 274.537C115.766 274.409 116.077 274.22 116.337 273.969C116.597 273.713 116.799 273.396 116.941 273.017L118.56 273.472C118.39 274.021 118.103 274.504 117.701 274.92C117.298 275.332 116.801 275.654 116.209 275.886C115.617 276.114 114.952 276.227 114.213 276.227ZM120.968 276V274.722L127.161 266.767V266.653H121.167V265.091H129.32V266.426L123.297 274.324V274.438H129.519V276H120.968ZM134.6 274.011L134.487 274.778C134.406 275.318 134.283 275.896 134.118 276.511C133.957 277.127 133.788 277.707 133.613 278.251C133.438 278.796 133.294 279.229 133.18 279.551H131.902C131.963 279.248 132.044 278.848 132.143 278.351C132.243 277.854 132.342 277.297 132.441 276.682C132.546 276.071 132.631 275.446 132.697 274.807L132.782 274.011H134.6ZM143.331 276V265.091H144.95V266.739H145.064C145.263 266.199 145.623 265.761 146.143 265.425C146.664 265.089 147.251 264.92 147.905 264.92C148.028 264.92 148.182 264.923 148.366 264.928C148.551 264.932 148.691 264.939 148.786 264.949V266.653C148.729 266.639 148.598 266.618 148.395 266.589C148.196 266.556 147.985 266.54 147.763 266.54C147.232 266.54 146.759 266.651 146.342 266.874C145.93 267.091 145.604 267.394 145.362 267.783C145.125 268.166 145.007 268.604 145.007 269.097V276H143.331ZM155.014 276.227C153.963 276.227 153.056 275.995 152.294 275.531C151.536 275.062 150.952 274.409 150.54 273.571C150.133 272.728 149.929 271.748 149.929 270.631C149.929 269.513 150.133 268.528 150.54 267.676C150.952 266.819 151.525 266.152 152.259 265.673C152.997 265.19 153.859 264.949 154.844 264.949C155.412 264.949 155.973 265.044 156.527 265.233C157.081 265.422 157.585 265.73 158.04 266.156C158.494 266.578 158.857 267.136 159.126 267.832C159.396 268.528 159.531 269.385 159.531 270.403V271.114H151.122V269.665H157.827C157.827 269.049 157.704 268.5 157.457 268.017C157.216 267.534 156.87 267.153 156.42 266.874C155.975 266.594 155.45 266.455 154.844 266.455C154.176 266.455 153.598 266.62 153.111 266.952C152.628 267.278 152.256 267.705 151.996 268.23C151.735 268.756 151.605 269.319 151.605 269.92V270.886C151.605 271.71 151.747 272.409 152.031 272.982C152.32 273.55 152.72 273.983 153.232 274.281C153.743 274.575 154.337 274.722 155.014 274.722C155.455 274.722 155.852 274.66 156.207 274.537C156.567 274.409 156.877 274.22 157.138 273.969C157.398 273.713 157.599 273.396 157.741 273.017L159.361 273.472C159.19 274.021 158.904 274.504 158.501 274.92C158.099 275.332 157.602 275.654 157.01 275.886C156.418 276.114 155.753 276.227 155.014 276.227ZM153.991 263.614L155.724 260.318H157.685L155.469 263.614H153.991ZM169.808 267.534L168.303 267.96C168.208 267.709 168.068 267.465 167.884 267.229C167.704 266.987 167.457 266.788 167.145 266.632C166.832 266.476 166.432 266.398 165.945 266.398C165.277 266.398 164.721 266.552 164.276 266.859C163.835 267.162 163.615 267.548 163.615 268.017C163.615 268.434 163.767 268.763 164.07 269.004C164.373 269.246 164.846 269.447 165.49 269.608L167.109 270.006C168.085 270.242 168.812 270.605 169.29 271.092C169.768 271.575 170.007 272.198 170.007 272.96C170.007 273.585 169.827 274.144 169.467 274.636C169.112 275.129 168.615 275.517 167.976 275.801C167.337 276.085 166.593 276.227 165.746 276.227C164.633 276.227 163.712 275.986 162.983 275.503C162.254 275.02 161.792 274.314 161.598 273.386L163.189 272.989C163.34 273.576 163.627 274.016 164.048 274.31C164.474 274.603 165.031 274.75 165.717 274.75C166.499 274.75 167.119 274.584 167.578 274.253C168.042 273.917 168.274 273.514 168.274 273.045C168.274 272.667 168.142 272.349 167.876 272.094C167.611 271.833 167.204 271.639 166.655 271.511L164.837 271.085C163.838 270.848 163.104 270.482 162.635 269.984C162.171 269.482 161.939 268.855 161.939 268.102C161.939 267.487 162.112 266.942 162.457 266.469C162.808 265.995 163.284 265.624 163.885 265.354C164.491 265.084 165.178 264.949 165.945 264.949C167.024 264.949 167.872 265.186 168.487 265.659C169.107 266.133 169.548 266.758 169.808 267.534ZM177.104 276.227C176.053 276.227 175.146 275.995 174.384 275.531C173.626 275.062 173.042 274.409 172.63 273.571C172.222 272.728 172.019 271.748 172.019 270.631C172.019 269.513 172.222 268.528 172.63 267.676C173.042 266.819 173.614 266.152 174.348 265.673C175.087 265.19 175.949 264.949 176.934 264.949C177.502 264.949 178.063 265.044 178.617 265.233C179.171 265.422 179.675 265.73 180.13 266.156C180.584 266.578 180.946 267.136 181.216 267.832C181.486 268.528 181.621 269.385 181.621 270.403V271.114H173.212V269.665H179.917C179.917 269.049 179.793 268.5 179.547 268.017C179.306 267.534 178.96 267.153 178.51 266.874C178.065 266.594 177.54 266.455 176.934 266.455C176.266 266.455 175.688 266.62 175.201 266.952C174.718 267.278 174.346 267.705 174.086 268.23C173.825 268.756 173.695 269.319 173.695 269.92V270.886C173.695 271.71 173.837 272.409 174.121 272.982C174.41 273.55 174.81 273.983 175.321 274.281C175.833 274.575 176.427 274.722 177.104 274.722C177.544 274.722 177.942 274.66 178.297 274.537C178.657 274.409 178.967 274.22 179.228 273.969C179.488 273.713 179.689 273.396 179.831 273.017L181.451 273.472C181.28 274.021 180.994 274.504 180.591 274.92C180.189 275.332 179.692 275.654 179.1 275.886C178.508 276.114 177.843 276.227 177.104 276.227ZM184.171 276V265.091H185.79V266.739H185.904C186.103 266.199 186.462 265.761 186.983 265.425C187.504 265.089 188.091 264.92 188.745 264.92C188.868 264.92 189.022 264.923 189.206 264.928C189.391 264.932 189.531 264.939 189.625 264.949V266.653C189.569 266.639 189.438 266.618 189.235 266.589C189.036 266.556 188.825 266.54 188.603 266.54C188.072 266.54 187.599 266.651 187.182 266.874C186.77 267.091 186.444 267.394 186.202 267.783C185.965 268.166 185.847 268.604 185.847 269.097V276H184.171ZM200.865 265.091L196.831 276H195.126L191.092 265.091H192.91L195.922 273.784H196.035L199.047 265.091H200.865ZM207.26 276.227C206.209 276.227 205.302 275.995 204.54 275.531C203.783 275.062 203.198 274.409 202.786 273.571C202.379 272.728 202.175 271.748 202.175 270.631C202.175 269.513 202.379 268.528 202.786 267.676C203.198 266.819 203.771 266.152 204.505 265.673C205.243 265.19 206.105 264.949 207.09 264.949C207.658 264.949 208.219 265.044 208.773 265.233C209.327 265.422 209.831 265.73 210.286 266.156C210.74 266.578 211.103 267.136 211.373 267.832C211.642 268.528 211.777 269.385 211.777 270.403V271.114H203.368V269.665H210.073C210.073 269.049 209.95 268.5 209.703 268.017C209.462 267.534 209.116 267.153 208.667 266.874C208.221 266.594 207.696 266.455 207.09 266.455C206.422 266.455 205.845 266.62 205.357 266.952C204.874 267.278 204.502 267.705 204.242 268.23C203.981 268.756 203.851 269.319 203.851 269.92V270.886C203.851 271.71 203.993 272.409 204.277 272.982C204.566 273.55 204.966 273.983 205.478 274.281C205.989 274.575 206.583 274.722 207.26 274.722C207.701 274.722 208.098 274.66 208.453 274.537C208.813 274.409 209.123 274.22 209.384 273.969C209.644 273.713 209.846 273.396 209.988 273.017L211.607 273.472C211.436 274.021 211.15 274.504 210.748 274.92C210.345 275.332 209.848 275.654 209.256 275.886C208.664 276.114 207.999 276.227 207.26 276.227ZM214.015 276V274.722L220.208 266.767V266.653H214.213V265.091H222.367V266.426L216.344 274.324V274.438H222.566V276H214.015ZM227.647 274.011L227.534 274.778C227.453 275.318 227.33 275.896 227.164 276.511C227.003 277.127 226.835 277.707 226.66 278.251C226.485 278.796 226.341 279.229 226.227 279.551H224.949C225.01 279.248 225.091 278.848 225.19 278.351C225.289 277.854 225.389 277.297 225.488 276.682C225.592 276.071 225.678 275.446 225.744 274.807L225.829 274.011H227.647ZM240.497 276.227C239.588 276.227 238.786 275.998 238.089 275.538C237.393 275.074 236.849 274.421 236.456 273.578C236.063 272.731 235.866 271.729 235.866 270.574C235.866 269.428 236.063 268.434 236.456 267.591C236.849 266.748 237.396 266.097 238.097 265.638C238.797 265.179 239.607 264.949 240.526 264.949C241.236 264.949 241.797 265.067 242.209 265.304C242.625 265.536 242.943 265.801 243.161 266.099C243.383 266.393 243.556 266.634 243.679 266.824H243.821V261.455H245.497V276H243.878V274.324H243.679C243.556 274.523 243.381 274.774 243.153 275.077C242.926 275.375 242.602 275.643 242.18 275.879C241.759 276.111 241.198 276.227 240.497 276.227ZM240.724 274.722C241.397 274.722 241.965 274.546 242.429 274.196C242.893 273.841 243.246 273.351 243.487 272.726C243.729 272.096 243.849 271.369 243.849 270.545C243.849 269.731 243.731 269.018 243.494 268.408C243.258 267.792 242.907 267.314 242.443 266.973C241.979 266.627 241.406 266.455 240.724 266.455C240.014 266.455 239.422 266.637 238.949 267.001C238.48 267.361 238.127 267.851 237.891 268.472C237.659 269.087 237.543 269.778 237.543 270.545C237.543 271.322 237.661 272.027 237.898 272.662C238.139 273.292 238.494 273.794 238.963 274.168C239.437 274.537 240.024 274.722 240.724 274.722ZM253.374 276.227C252.322 276.227 251.416 275.995 250.653 275.531C249.896 275.062 249.311 274.409 248.899 273.571C248.492 272.728 248.288 271.748 248.288 270.631C248.288 269.513 248.492 268.528 248.899 267.676C249.311 266.819 249.884 266.152 250.618 265.673C251.357 265.19 252.218 264.949 253.203 264.949C253.771 264.949 254.332 265.044 254.886 265.233C255.44 265.422 255.945 265.73 256.399 266.156C256.854 266.578 257.216 267.136 257.486 267.832C257.756 268.528 257.891 269.385 257.891 270.403V271.114H249.482V269.665H256.186C256.186 269.049 256.063 268.5 255.817 268.017C255.575 267.534 255.23 267.153 254.78 266.874C254.335 266.594 253.809 266.455 253.203 266.455C252.536 266.455 251.958 266.62 251.47 266.952C250.987 267.278 250.616 267.705 250.355 268.23C250.095 268.756 249.964 269.319 249.964 269.92V270.886C249.964 271.71 250.107 272.409 250.391 272.982C250.679 273.55 251.08 273.983 251.591 274.281C252.102 274.575 252.696 274.722 253.374 274.722C253.814 274.722 254.212 274.66 254.567 274.537C254.927 274.409 255.237 274.22 255.497 273.969C255.758 273.713 255.959 273.396 256.101 273.017L257.72 273.472C257.55 274.021 257.263 274.504 256.861 274.92C256.458 275.332 255.961 275.654 255.369 275.886C254.777 276.114 254.112 276.227 253.374 276.227ZM252.351 263.614L254.084 260.318H256.044L253.828 263.614H252.351ZM265.185 265.091V266.511H259.531V265.091H265.185ZM261.179 262.477H262.855V272.875C262.855 273.348 262.924 273.704 263.061 273.94C263.203 274.172 263.383 274.329 263.601 274.409C263.823 274.485 264.058 274.523 264.304 274.523C264.489 274.523 264.64 274.513 264.759 274.494C264.877 274.471 264.972 274.452 265.043 274.438L265.384 275.943C265.27 275.986 265.111 276.028 264.908 276.071C264.704 276.118 264.446 276.142 264.134 276.142C263.66 276.142 263.196 276.04 262.741 275.837C262.292 275.633 261.918 275.323 261.619 274.906C261.326 274.49 261.179 273.964 261.179 273.33V262.477ZM272.163 276.227C271.112 276.227 270.205 275.995 269.442 275.531C268.685 275.062 268.1 274.409 267.688 273.571C267.281 272.728 267.077 271.748 267.077 270.631C267.077 269.513 267.281 268.528 267.688 267.676C268.1 266.819 268.673 266.152 269.407 265.673C270.146 265.19 271.007 264.949 271.992 264.949C272.56 264.949 273.121 265.044 273.675 265.233C274.229 265.422 274.734 265.73 275.188 266.156C275.643 266.578 276.005 267.136 276.275 267.832C276.545 268.528 276.68 269.385 276.68 270.403V271.114H268.271V269.665H274.975C274.975 269.049 274.852 268.5 274.606 268.017C274.364 267.534 274.019 267.153 273.569 266.874C273.124 266.594 272.598 266.455 271.992 266.455C271.325 266.455 270.747 266.62 270.259 266.952C269.776 267.278 269.405 267.705 269.144 268.23C268.884 268.756 268.754 269.319 268.754 269.92V270.886C268.754 271.71 268.896 272.409 269.18 272.982C269.469 273.55 269.869 273.983 270.38 274.281C270.891 274.575 271.486 274.722 272.163 274.722C272.603 274.722 273.001 274.66 273.356 274.537C273.716 274.409 274.026 274.22 274.286 273.969C274.547 273.713 274.748 273.396 274.89 273.017L276.509 273.472C276.339 274.021 276.052 274.504 275.65 274.92C275.247 275.332 274.75 275.654 274.158 275.886C273.567 276.114 272.901 276.227 272.163 276.227ZM280.906 269.438V276H279.229V265.091H280.849V266.795H280.991C281.246 266.241 281.635 265.796 282.156 265.46C282.676 265.119 283.349 264.949 284.173 264.949C284.911 264.949 285.558 265.1 286.112 265.403C286.665 265.702 287.096 266.156 287.404 266.767C287.712 267.373 287.866 268.14 287.866 269.068V276H286.19V269.182C286.19 268.325 285.967 267.657 285.522 267.179C285.077 266.696 284.466 266.455 283.69 266.455C283.155 266.455 282.676 266.571 282.255 266.803C281.838 267.035 281.509 267.373 281.268 267.818C281.026 268.263 280.906 268.803 280.906 269.438ZM295.048 276.227C294.139 276.227 293.336 275.998 292.64 275.538C291.944 275.074 291.4 274.421 291.007 273.578C290.614 272.731 290.417 271.729 290.417 270.574C290.417 269.428 290.614 268.434 291.007 267.591C291.4 266.748 291.947 266.097 292.647 265.638C293.348 265.179 294.158 264.949 295.076 264.949C295.787 264.949 296.348 265.067 296.76 265.304C297.176 265.536 297.493 265.801 297.711 266.099C297.934 266.393 298.107 266.634 298.23 266.824H298.372V261.455H300.048V276H298.429V274.324H298.23C298.107 274.523 297.931 274.774 297.704 275.077C297.477 275.375 297.153 275.643 296.731 275.879C296.31 276.111 295.749 276.227 295.048 276.227ZM295.275 274.722C295.948 274.722 296.516 274.546 296.98 274.196C297.444 273.841 297.797 273.351 298.038 272.726C298.279 272.096 298.4 271.369 298.4 270.545C298.4 269.731 298.282 269.018 298.045 268.408C297.808 267.792 297.458 267.314 296.994 266.973C296.53 266.627 295.957 266.455 295.275 266.455C294.565 266.455 293.973 266.637 293.5 267.001C293.031 267.361 292.678 267.851 292.441 268.472C292.209 269.087 292.093 269.778 292.093 270.545C292.093 271.322 292.212 272.027 292.449 272.662C292.69 273.292 293.045 273.794 293.514 274.168C293.987 274.537 294.574 274.722 295.275 274.722ZM307.924 276.227C306.873 276.227 305.967 275.995 305.204 275.531C304.447 275.062 303.862 274.409 303.45 273.571C303.043 272.728 302.839 271.748 302.839 270.631C302.839 269.513 303.043 268.528 303.45 267.676C303.862 266.819 304.435 266.152 305.169 265.673C305.907 265.19 306.769 264.949 307.754 264.949C308.322 264.949 308.883 265.044 309.437 265.233C309.991 265.422 310.495 265.73 310.95 266.156C311.404 266.578 311.767 267.136 312.037 267.832C312.306 268.528 312.441 269.385 312.441 270.403V271.114H304.032V269.665H310.737C310.737 269.049 310.614 268.5 310.368 268.017C310.126 267.534 309.78 267.153 309.331 266.874C308.886 266.594 308.36 266.455 307.754 266.455C307.086 266.455 306.509 266.62 306.021 266.952C305.538 267.278 305.166 267.705 304.906 268.23C304.645 268.756 304.515 269.319 304.515 269.92V270.886C304.515 271.71 304.657 272.409 304.941 272.982C305.23 273.55 305.63 273.983 306.142 274.281C306.653 274.575 307.247 274.722 307.924 274.722C308.365 274.722 308.762 274.66 309.118 274.537C309.477 274.409 309.788 274.22 310.048 273.969C310.308 273.713 310.51 273.396 310.652 273.017L312.271 273.472C312.1 274.021 311.814 274.504 311.412 274.92C311.009 275.332 310.512 275.654 309.92 275.886C309.328 276.114 308.663 276.227 307.924 276.227ZM314.679 276V274.722L320.872 266.767V266.653H314.877V265.091H323.031V266.426L317.008 274.324V274.438H323.23V276H314.679ZM332.061 268.983V270.545H325.698V268.983H332.061ZM343.931 265.091L339.897 276H338.192L334.158 265.091H335.977L338.988 273.784H339.102L342.113 265.091H343.931ZM350.185 276.227C349.2 276.227 348.336 275.993 347.592 275.524C346.854 275.055 346.276 274.4 345.859 273.557C345.447 272.714 345.241 271.729 345.241 270.602C345.241 269.466 345.447 268.474 345.859 267.626C346.276 266.779 346.854 266.121 347.592 265.652C348.336 265.183 349.2 264.949 350.185 264.949C351.17 264.949 352.031 265.183 352.77 265.652C353.513 266.121 354.091 266.779 354.503 267.626C354.92 268.474 355.128 269.466 355.128 270.602C355.128 271.729 354.92 272.714 354.503 273.557C354.091 274.4 353.513 275.055 352.77 275.524C352.031 275.993 351.17 276.227 350.185 276.227ZM350.185 274.722C350.933 274.722 351.548 274.53 352.031 274.146C352.514 273.763 352.872 273.259 353.104 272.634C353.336 272.009 353.452 271.331 353.452 270.602C353.452 269.873 353.336 269.194 353.104 268.564C352.872 267.934 352.514 267.425 352.031 267.037C351.548 266.649 350.933 266.455 350.185 266.455C349.437 266.455 348.821 266.649 348.338 267.037C347.855 267.425 347.498 267.934 347.266 268.564C347.034 269.194 346.918 269.873 346.918 270.602C346.918 271.331 347.034 272.009 347.266 272.634C347.498 273.259 347.855 273.763 348.338 274.146C348.821 274.53 349.437 274.722 350.185 274.722ZM364.561 271.54V265.091H366.238V276H364.561V274.153H364.448C364.192 274.707 363.794 275.179 363.255 275.567C362.715 275.95 362.033 276.142 361.209 276.142C360.527 276.142 359.921 275.993 359.391 275.695C358.861 275.392 358.444 274.937 358.141 274.331C357.838 273.72 357.686 272.951 357.686 272.023V265.091H359.363V271.909C359.363 272.705 359.585 273.339 360.03 273.812C360.48 274.286 361.053 274.523 361.749 274.523C362.166 274.523 362.589 274.416 363.02 274.203C363.456 273.99 363.82 273.663 364.114 273.223C364.412 272.783 364.561 272.222 364.561 271.54ZM377.035 267.534L375.529 267.96C375.434 267.709 375.295 267.465 375.11 267.229C374.93 266.987 374.684 266.788 374.371 266.632C374.059 266.476 373.659 266.398 373.171 266.398C372.504 266.398 371.947 266.552 371.502 266.859C371.062 267.162 370.842 267.548 370.842 268.017C370.842 268.434 370.993 268.763 371.296 269.004C371.599 269.246 372.073 269.447 372.717 269.608L374.336 270.006C375.311 270.242 376.038 270.605 376.516 271.092C376.995 271.575 377.234 272.198 377.234 272.96C377.234 273.585 377.054 274.144 376.694 274.636C376.339 275.129 375.842 275.517 375.202 275.801C374.563 276.085 373.82 276.227 372.972 276.227C371.86 276.227 370.939 275.986 370.21 275.503C369.48 275.02 369.019 274.314 368.825 273.386L370.415 272.989C370.567 273.576 370.853 274.016 371.275 274.31C371.701 274.603 372.257 274.75 372.944 274.75C373.725 274.75 374.345 274.584 374.805 274.253C375.269 273.917 375.501 273.514 375.501 273.045C375.501 272.667 375.368 272.349 375.103 272.094C374.838 271.833 374.431 271.639 373.881 271.511L372.063 271.085C371.064 270.848 370.33 270.482 369.862 269.984C369.397 269.482 369.165 268.855 369.165 268.102C369.165 267.487 369.338 266.942 369.684 266.469C370.034 265.995 370.51 265.624 371.112 265.354C371.718 265.084 372.404 264.949 373.171 264.949C374.251 264.949 375.098 265.186 375.714 265.659C376.334 266.133 376.774 266.758 377.035 267.534Z" fill="url(#paint0_linear_508_3262)"/>
<defs>
<linearGradient id="paint0_linear_508_3262" x1="55" y1="276" x2="385.268" y2="276" gradientUnits="userSpaceOnUse">
<stop stop-color="#DDDDDB" stop-opacity="0.89"/>
<stop offset="0.34" stop-color="#F4E081"/>
<stop offset="0.695" stop-color="#F4E081"/>
<stop offset="1" stop-color="#DDDDDB"/>
</linearGradient>
</defs>
</svg>
