<svg width="18" height="15" viewBox="0 0 18 15" fill="none" xmlns="http://www.w3.org/2000/svg">
<path d="M13.1157 0C14.2332 0 15.3082 0.441667 16.099 1.23417C16.8907 2.025 17.3332 3.09167 17.3332 4.20833V10.7917C17.3332 13.1167 15.4415 15 13.1157 15H4.88317C2.55734 15 0.666504 13.1167 0.666504 10.7917V4.20833C0.666504 1.88333 2.549 0 4.88317 0H13.1157ZM14.0582 4.33333C13.8832 4.32417 13.7165 4.38333 13.5907 4.5L9.83317 7.5C9.34984 7.90083 8.65734 7.90083 8.1665 7.5L4.4165 4.5C4.15734 4.30833 3.799 4.33333 3.58317 4.55833C3.35817 4.78333 3.33317 5.14167 3.524 5.39167L3.63317 5.5L7.42484 8.45833C7.8915 8.825 8.45734 9.025 9.04984 9.025C9.64067 9.025 10.2165 8.825 10.6823 8.45833L14.4415 5.45L14.5082 5.38333C14.7073 5.14167 14.7073 4.79167 14.499 4.55C14.3832 4.42583 14.224 4.35 14.0582 4.33333Z" fill="white"/>
</svg>
