<svg width="16" height="17" viewBox="0 0 16 17" fill="none" xmlns="http://www.w3.org/2000/svg">
<path d="M7.98714 0C10.5444 0 12.6021 2.01232 12.6021 4.49667V5.77445C14.0374 6.22247 15.0832 7.52178 15.0832 9.07367V13.1878C15.0832 15.109 13.4904 16.6667 11.5267 16.6667H4.47384C2.5093 16.6667 0.916504 15.109 0.916504 13.1878V9.07367C0.916504 7.52178 1.96313 6.22247 3.39758 5.77445V4.49667C3.40604 2.01232 5.46373 0 7.98714 0ZM7.9956 9.4869C7.58915 9.4869 7.2589 9.80986 7.2589 10.2074V12.0458C7.2589 12.4516 7.58915 12.7745 7.9956 12.7745C8.41053 12.7745 8.74077 12.4516 8.74077 12.0458V10.2074C8.74077 9.80986 8.41053 9.4869 7.9956 9.4869ZM8.00407 1.4492C6.2851 1.4492 4.88791 2.80731 4.87945 4.48011V5.59475H11.1202V4.49667C11.1202 2.8156 9.72304 1.4492 8.00407 1.4492Z" fill="white"/>
</svg>
