<svg width="19" height="21" viewBox="0 0 19 21" fill="none" xmlns="http://www.w3.org/2000/svg">
<path d="M12.625 15.7083H17.8334L16.3699 14.2449C15.973 13.848 15.75 13.3097 15.75 12.7484V9.45834C15.75 6.73705 14.0108 4.42197 11.5834 3.56397V3.20833C11.5834 2.05774 10.6506 1.125 9.50002 1.125C8.34943 1.125 7.41669 2.05774 7.41669 3.20833V3.56397C4.9892 4.42197 3.25002 6.73705 3.25002 9.45834V12.7484C3.25002 13.3097 3.02705 13.848 2.63016 14.2449L1.16669 15.7083H6.37502M12.625 15.7083V16.75C12.625 18.4759 11.2259 19.875 9.50002 19.875C7.77413 19.875 6.37502 18.4759 6.37502 16.75V15.7083M12.625 15.7083H6.37502" stroke="#3F3F46" stroke-width="1.2" stroke-linecap="round" stroke-linejoin="round"/>
</svg>
