<svg width="13" height="13" viewBox="0 0 13 13" fill="none" xmlns="http://www.w3.org/2000/svg">
<path d="M2.70831 11.9167C2.70865 12.2039 2.8229 12.4792 3.02599 12.6823C3.22908 12.8854 3.50443 12.9997 3.79165 13H9.20831C9.49553 12.9997 9.77088 12.8854 9.97397 12.6823C10.1771 12.4792 10.2913 12.2039 10.2916 11.9167V11.4427H2.70831V11.9167Z" fill="#232323"/>
<path d="M10.2916 1.08333C10.2913 0.79612 10.1771 0.520768 9.97397 0.317677C9.77088 0.114586 9.49553 0.00034046 9.20831 0L3.79165 0C3.50443 0.00034046 3.22908 0.114586 3.02599 0.317677C2.8229 0.520768 2.70865 0.79612 2.70831 1.08333V1.625H10.2916V1.08333Z" fill="#232323"/>
<path d="M12.849 3.48427L11.224 1.79156L10.4425 2.54177L11.1224 3.25H10.2916V4.33334H11.1808L10.4585 5.02559L11.2081 5.80775L12.8331 4.25046C12.8844 4.20122 12.9256 4.14233 12.9542 4.07717C12.9828 4.012 12.9983 3.94183 12.9998 3.87068C13.0013 3.79952 12.9888 3.72877 12.9629 3.66247C12.937 3.59617 12.8983 3.53562 12.849 3.48427Z" fill="#232323"/>
<path d="M8.66665 3.24999H10.2916V2.16666H2.70831V8.66666H4.33331V9.74999H2.70831V10.8333H10.2916V4.33332H8.66665V3.24999ZM8.12498 5.41666H6.22915C6.15732 5.41666 6.08843 5.44519 6.03764 5.49598C5.98685 5.54677 5.95831 5.61566 5.95831 5.68749C5.95831 5.75932 5.98685 5.82821 6.03764 5.879C6.08843 5.92979 6.15732 5.95832 6.22915 5.95832H6.77081C7.10663 5.95799 7.4306 6.08244 7.67982 6.30753C7.92904 6.53262 8.08574 6.84228 8.11948 7.1764C8.15323 7.51052 8.06163 7.84526 7.86246 8.11564C7.66328 8.38602 7.37075 8.57275 7.04165 8.63957V9.20832H5.95831V8.66666H4.87498V7.58332H6.77081C6.84264 7.58332 6.91153 7.55479 6.96232 7.504C7.01311 7.45321 7.04165 7.38432 7.04165 7.31249C7.04165 7.24066 7.01311 7.17177 6.96232 7.12098C6.91153 7.07019 6.84264 7.04166 6.77081 7.04166H6.22915C5.89333 7.04199 5.56936 6.91754 5.32014 6.69245C5.07092 6.46736 4.91422 6.1577 4.88047 5.82358C4.84672 5.48946 4.93833 5.15472 5.1375 4.88434C5.33668 4.61396 5.62921 4.42723 5.95831 4.36041V3.79166H7.04165V4.33332H8.12498V5.41666Z" fill="#232323"/>
<path d="M1.8191 8.66668L2.54142 7.97443L1.79188 7.19226L0.166884 8.74955C0.1155 8.7988 0.0743233 8.85768 0.0457086 8.92285C0.0170938 8.98801 0.00160175 9.05818 0.000117768 9.12934C-0.00136621 9.20049 0.011187 9.27124 0.03706 9.33754C0.0629329 9.40384 0.101618 9.4644 0.150905 9.51574L1.77591 11.2084L2.55739 10.4582L1.87754 9.75001H2.70832V8.66668H1.8191Z" fill="#232323"/>
</svg>
