<svg width="24" height="12" viewBox="0 0 24 12" fill="none" xmlns="http://www.w3.org/2000/svg">
<path d="M18.996 2.86776C19.7085 1.97986 20.0443 1.28033 20.0443 1.28033L18.996 2.86776ZM18.996 2.86776C18.3184 3.71242 17.2998 4.72762 15.9053 5.47322M18.996 2.86776L15.9053 5.47322M18.996 2.86776L22.1407 4.425M11.6585 6.52144C9.97295 6.52144 8.56399 6.08937 7.41173 5.47322M11.6585 6.52144L7.41173 5.47322M11.6585 6.52144C13.344 6.52144 14.7529 6.08937 15.9053 5.47322M11.6585 6.52144L15.9053 5.47322M11.6585 6.52144V10.1902M7.41173 5.47322L4.32093 8.61789M7.41173 5.47322C6.09159 4.76735 5.1084 3.81997 4.43234 3.00445M7.41173 5.47322L4.43234 3.00445M15.9053 5.47322L18.4719 8.61789M4.43234 3.00445C3.64344 2.05269 3.27271 1.28033 3.27271 1.28033L4.43234 3.00445ZM4.43234 3.00445L1.17627 4.425" stroke="#3F414E" stroke-width="2" stroke-linecap="round" stroke-linejoin="round"/>
</svg>
